# xmcd CD database file
#
# Track frame offsets:
#	183
#	21333
#	45108
#	74883
#	110923
#	137433
#	156933
#	180333
#	201183
#
# Disc length: 3032 seconds
#
# Revision: 1
# Processed by: cddbd v1.4PL0 Copyright (c) Steve Scherf et al.
# Submitted via: CDex 1.50Beta7
#
DISCID=7c0bd609
DTITLE=Stormy Monday Band, Louisiana Red and Carey Bell - Live At 55 - Stormy Monday Band and Louisiana Red Meet Carey Bell
DYEAR=1991
DGENRE=Blues
TTITLE0=Ashima
TTITLE1=Blue As I Can Be
TTITLE2=Good Kokamaloo
TTITLE3=Lonesome Hotel
TTITLE4=Funky Slide
TTITLE5=Henk's Baby
TTITLE6=Luelen
TTITLE7=Woman Trouble
TTITLE8=Late Midnight
EXTD=YEAR: 1991
EXTT0=
EXTT1=
EXTT2=
EXTT3=
EXTT4=
EXTT5=
EXTT6=
EXTT7=
EXTT8=
PLAYORDER=
